<svg xmlns="http://www.w3.org/2000/svg" width="225" height="225" viewBox="0 0 225 225" version="1.1"><path d="M 81.673 20.477 C 79.567 21.214, 75.742 23.546, 73.173 25.659 C 70.603 27.771, 66.802 30.364, 64.726 31.420 C 60.270 33.688, 56.572 39.075, 57.488 41.963 C 58.057 43.756, 58.714 43.895, 64.024 43.340 C 71.289 42.580, 73.486 43.802, 77.233 50.688 L 79.922 55.627 73.542 59.822 C 60.672 68.284, 49.805 83.042, 44.327 99.500 C 41.986 106.531, 41.657 109.135, 41.611 121 C 41.566 132.396, 41.920 135.669, 43.878 142 C 51.730 167.394, 70.446 185.835, 95.692 193.055 C 134.547 204.167, 176.560 179.925, 187.142 140.287 C 190.012 129.536, 190.006 113.442, 187.128 102.658 C 182.318 84.636, 170.500 68.379, 155 58.462 C 152.525 56.879, 150.333 55.472, 150.129 55.337 C 149.924 55.201, 150.954 53.048, 152.417 50.551 C 155.527 45.245, 159.921 42.591, 164.382 43.325 C 166.097 43.607, 168.400 43.986, 169.500 44.169 C 171.099 44.434, 171.561 43.869, 171.806 41.349 C 172.190 37.395, 167.471 31.641, 162.500 30 C 160.630 29.383, 157.803 27.401, 156.218 25.595 C 151.254 19.942, 143.719 18.536, 136.500 21.917 C 134.300 22.948, 129.800 26.304, 126.500 29.376 C 119.798 35.614, 116.177 37.512, 112.663 36.630 C 111.356 36.302, 106.970 33.060, 102.917 29.426 C 92.311 19.916, 88.207 18.187, 81.673 20.477 M 76.955 26.660 C 74.727 28.672, 70.737 31.323, 68.088 32.551 C 64.650 34.144, 62.979 35.621, 62.250 37.714 L 61.228 40.646 66.864 40.247 C 74.726 39.691, 75.563 39.172, 68.750 39.079 C 65.588 39.036, 63 38.583, 63 38.073 C 63 36.816, 67.656 33.235, 70.332 32.433 C 71.525 32.075, 74.162 30.190, 76.194 28.243 C 78.422 26.108, 81.399 24.411, 83.694 23.967 L 87.500 23.230 84.253 23.115 C 81.824 23.029, 79.985 23.922, 76.955 26.660 M 136.353 25.971 C 133.522 27.594, 130.235 30.178, 129.049 31.711 C 124.993 36.956, 119.985 40, 115.412 40 C 111.907 40, 110.295 39.270, 106.033 35.750 C 95.104 26.725, 92.808 25, 91.726 25 C 91.112 25, 92.609 26.292, 95.054 27.870 C 97.499 29.449, 101.075 32.412, 103 34.455 C 110.027 41.914, 116.839 43.073, 123.842 38 C 126.120 36.350, 128.550 34.086, 129.242 32.969 C 130.909 30.279, 136.971 26.130, 141.698 24.444 C 143.921 23.651, 144.670 23.073, 143.500 23.053 C 142.400 23.034, 139.184 24.347, 136.353 25.971 M 148.500 24.412 C 150.150 25.145, 152.625 26.972, 154 28.471 C 155.375 29.970, 158.196 31.880, 160.269 32.714 C 162.342 33.549, 164.929 35.366, 166.019 36.751 C 167.108 38.136, 168 38.777, 168 38.174 C 168 36.549, 164.227 33.330, 160.645 31.900 C 158.915 31.210, 155.598 28.925, 153.272 26.822 C 150.947 24.720, 148.247 23.018, 147.272 23.039 C 146.148 23.064, 146.596 23.566, 148.500 24.412 M 158.083 39.365 C 158.313 39.565, 160.975 39.985, 164 40.298 C 167.551 40.666, 168.614 40.572, 167 40.034 C 164.522 39.207, 157.282 38.664, 158.083 39.365 M 77.634 41.919 C 79.358 42.970, 82.033 45.556, 83.579 47.665 C 87.595 53.144, 88.574 54.011, 86.392 50.157 C 84.219 46.318, 77.594 39.998, 75.747 40.004 C 75.061 40.006, 75.910 40.867, 77.634 41.919 M 150.305 42.499 C 149.127 43.324, 147.190 45.574, 146 47.499 C 144.810 49.425, 143.086 51.007, 142.168 51.015 C 140.766 51.028, 140.731 51.177, 141.953 51.950 C 143.056 52.648, 144.176 51.727, 146.594 48.136 C 148.347 45.533, 150.843 42.893, 152.141 42.269 C 153.438 41.646, 154.038 41.105, 153.473 41.068 C 152.907 41.030, 151.482 41.675, 150.305 42.499 M 113.250 46.728 C 115.313 46.944, 118.688 46.944, 120.750 46.728 C 122.813 46.513, 121.125 46.336, 117 46.336 C 112.875 46.336, 111.188 46.513, 113.250 46.728 M 103.762 47.707 C 105.006 47.946, 106.806 47.937, 107.762 47.687 C 108.718 47.437, 107.700 47.241, 105.500 47.252 C 103.300 47.263, 102.518 47.468, 103.762 47.707 M 126.750 47.662 C 127.438 47.940, 128.563 47.940, 129.250 47.662 C 129.938 47.385, 129.375 47.158, 128 47.158 C 126.625 47.158, 126.063 47.385, 126.750 47.662 M 95.500 49 C 94.239 49.542, 94.055 49.859, 95 49.859 C 95.825 49.859, 97.400 49.473, 98.500 49 C 99.761 48.458, 99.945 48.141, 99 48.141 C 98.175 48.141, 96.600 48.527, 95.500 49 M 131.813 48.683 C 132.534 48.972, 133.397 48.936, 133.729 48.604 C 134.061 48.272, 133.471 48.036, 132.417 48.079 C 131.252 48.127, 131.015 48.364, 131.813 48.683 M 136.500 50 C 139.249 51.181, 140.828 51.181, 139 50 C 138.175 49.467, 136.825 49.055, 136 49.086 C 135.011 49.122, 135.181 49.433, 136.500 50 M 90 51 C 89.175 51.533, 88.950 51.969, 89.500 51.969 C 90.050 51.969, 91.175 51.533, 92 51 C 92.825 50.467, 93.050 50.031, 92.500 50.031 C 91.950 50.031, 90.825 50.467, 90 51 M 107.222 53.929 C 106.770 55.150, 106.086 56.115, 105.700 56.074 C 103.469 55.838, 103 56.224, 103 58.300 C 103 61.400, 104.603 62.799, 107.517 62.241 C 109.768 61.811, 109.890 61.465, 109.325 57.140 C 108.590 51.521, 108.285 51.055, 107.222 53.929 M 124.467 54.053 C 123.346 55.868, 122.862 63, 123.861 63 C 124.590 63, 128 55.027, 128 53.322 C 128 52.506, 125.046 53.117, 124.467 54.053 M 111.500 56 C 111.122 56.612, 111.088 58.213, 111.425 59.557 C 112.076 62.151, 114.447 62.722, 117 60.898 C 118.205 60.037, 118.058 59.923, 116.251 60.319 C 115.014 60.590, 113.750 60.404, 113.442 59.906 C 113.134 59.408, 114.067 59, 115.514 59 C 117.481 59, 118.063 58.558, 117.815 57.250 C 117.434 55.242, 112.565 54.277, 111.500 56 M 90.389 56.787 C 89.607 57.289, 89.814 58.750, 91.092 61.735 C 92.706 65.504, 93.158 65.877, 95.203 65.121 C 96.872 64.503, 97.500 63.482, 97.500 61.385 C 97.500 58.974, 97.089 58.500, 95 58.500 C 93.625 58.500, 92.275 57.954, 92 57.287 C 91.725 56.619, 91 56.394, 90.389 56.787 M 113.500 57 C 113.160 57.550, 113.610 58, 114.500 58 C 115.390 58, 115.840 57.550, 115.500 57 C 115.160 56.450, 114.710 56, 114.500 56 C 114.290 56, 113.840 56.450, 113.500 57 M 105 58.441 C 105 59.234, 105.450 60.160, 106 60.500 C 106.550 60.840, 107 60.191, 107 59.059 C 107 57.927, 106.550 57, 106 57 C 105.450 57, 105 57.648, 105 58.441 M 128.667 57.667 C 127.657 58.676, 127.869 64, 128.918 64 C 129.423 64, 130.484 64.248, 131.275 64.552 C 132.744 65.116, 135.847 59.514, 134.701 58.368 C 133.816 57.483, 132 58.957, 132 60.559 C 132 61.352, 131.501 62, 130.892 62 C 130.209 62, 130.024 61.040, 130.411 59.500 C 131.005 57.133, 130.125 56.209, 128.667 57.667 M 137.401 58.765 C 136.797 59.169, 136.288 60.175, 136.270 61 C 136.253 61.825, 135.934 63.229, 135.562 64.121 C 135.137 65.139, 135.465 65.964, 136.443 66.340 C 137.533 66.758, 138 66.337, 138 64.937 C 138 63.837, 138.625 62.697, 139.389 62.404 C 140.193 62.096, 140.565 61.054, 140.273 59.935 C 139.729 57.855, 139.128 57.611, 137.401 58.765 M 141.231 63.462 L 139.151 67.743 141.541 69.022 C 143.477 70.058, 144.223 70.059, 145.466 69.028 C 147.438 67.391, 147.443 64.107, 145.474 63.352 C 144.369 62.928, 144.239 62.418, 145 61.500 C 145.755 60.591, 145.665 60.085, 144.681 59.708 C 143.799 59.369, 142.568 60.709, 141.231 63.462 M 87.702 60.632 C 87.336 60.998, 87.302 62.355, 87.627 63.648 C 88.339 66.486, 86.406 66.855, 85.516 64.051 C 85.151 62.900, 84.320 62.324, 83.487 62.643 C 82.354 63.078, 82.500 63.757, 84.226 66.092 C 86.661 69.385, 86.838 69.439, 89.258 67.602 C 90.813 66.422, 90.863 65.904, 89.691 63.117 C 88.963 61.384, 88.067 60.266, 87.702 60.632 M 93.694 60.639 C 92.895 61.438, 93.798 63, 95.059 63 C 95.577 63, 96 62.325, 96 61.500 C 96 59.954, 94.820 59.513, 93.694 60.639 M 79.619 67 C 81.980 70.569, 84 72.121, 84 70.368 C 84 68.704, 79.668 63, 78.404 63 C 77.363 63, 77.695 64.093, 79.619 67 M 108.760 66.154 C 100.213 67.015, 93.813 69.144, 86.379 73.597 C 74.739 80.571, 66.293 90.900, 61.519 104 C 57.902 113.926, 57.625 128.961, 60.875 139 C 69.920 166.939, 98.058 183.699, 126.201 177.910 C 133.784 176.350, 146.653 169.870, 152.594 164.619 C 159.300 158.693, 165.260 149.340, 168.486 139.677 C 171.841 129.630, 172.109 115.742, 169.133 106.178 C 163.927 89.451, 150.428 75.045, 134.310 69.015 C 127.446 66.447, 117.220 65.302, 108.760 66.154 M 142.459 66.067 C 142.096 66.653, 142.040 67.373, 142.333 67.667 C 143.050 68.383, 145 67.121, 145 65.941 C 145 64.663, 143.274 64.748, 142.459 66.067 M 71.438 68.068 C 69.729 69.957, 69.697 70.370, 71.067 72.818 C 72.725 75.783, 76.321 76.809, 78.555 74.954 C 80.195 73.593, 80.518 70, 79 70 C 78.450 70, 78 70.648, 78 71.441 C 78 73.572, 76.125 74.349, 74.413 72.928 C 72.616 71.436, 72.959 68.500, 74.930 68.500 C 75.702 68.500, 76.521 67.938, 76.750 67.250 C 77.431 65.208, 73.475 65.817, 71.438 68.068 M 148.200 68.200 C 145.214 71.186, 148.526 75.859, 152.224 73.880 C 155.172 72.302, 153.843 67, 150.500 67 C 149.895 67, 148.860 67.540, 148.200 68.200 M 149.345 70.543 C 149.019 71.392, 149.004 72.337, 149.310 72.643 C 150.186 73.519, 152 72.034, 152 70.441 C 152 68.522, 150.092 68.596, 149.345 70.543 M 155.179 73.316 C 153.411 75.139, 152.253 76.920, 152.606 77.273 C 153.525 78.191, 160 73.032, 160 71.381 C 160 69.198, 158.641 69.743, 155.179 73.316 M 80.383 87.444 C 78.397 88.835, 78.295 90.099, 77.628 121.570 C 77.020 150.235, 77.126 154.544, 78.491 156.626 C 80.009 158.944, 80.389 159, 94.523 159 C 106.725 159, 109 158.764, 109 157.500 C 109 156.245, 106.911 156, 96.200 156 C 87.578 156, 83.008 155.608, 82.200 154.800 C 80.485 153.085, 80.485 92.915, 82.200 91.200 C 83.008 90.392, 87.578 90, 96.200 90 C 108.333 90, 109 89.896, 109 88 C 109 86.100, 108.333 86, 95.723 86 C 85.767 86, 81.929 86.361, 80.383 87.444 M 115.750 86.561 C 115.338 86.986, 115 87.933, 115 88.667 C 115 89.651, 116.833 90, 122 90 L 129 90 129 120.500 L 129 151 132.500 151 C 135.333 151, 136 150.619, 136 149 C 136 147.624, 135.333 147, 133.863 147 L 131.727 147 132.233 117 L 132.739 87 130.516 87 C 129.294 87, 125.640 86.728, 122.397 86.395 C 119.154 86.062, 116.162 86.137, 115.750 86.561 M 143.750 88.733 C 141.688 89.579, 140 90.625, 140 91.058 C 140 91.994, 146.920 94.413, 147.614 93.720 C 147.877 93.456, 146.947 92.953, 145.547 92.601 C 142.303 91.787, 142.281 90.397, 145.500 89.589 C 146.875 89.244, 148 88.520, 148 87.981 C 148 87.441, 147.887 87.044, 147.750 87.097 C 147.613 87.151, 145.813 87.887, 143.750 88.733 M 91 95.771 C 87.732 96.771, 87 99.320, 87 109.691 L 87 120 98 120 C 108.333 120, 109 119.879, 109 118 C 109 116.140, 108.333 116, 99.500 116 L 90 116 90 108.700 C 90 104.356, 90.486 100.914, 91.200 100.200 C 91.941 99.459, 95.578 99, 100.700 99 C 107.205 99, 109 98.693, 109 97.579 C 109 96.798, 107.746 95.884, 106.214 95.547 C 103.195 94.884, 93.428 95.028, 91 95.771 M 115 97.500 C 115 98.412, 115.930 99, 117.372 99 L 119.743 99 119.500 119.250 C 119.144 148.871, 119.313 147, 117 147 C 115.889 147, 115 147.667, 115 148.500 C 115 149.583, 116.111 150, 119 150 L 123 150 123 123 L 123 96 119 96 C 116.111 96, 115 96.417, 115 97.500 M 140.173 99.500 C 140.367 102.375, 140.804 103, 142.623 103 C 143.840 103, 145.548 102.727, 146.418 102.393 C 148.185 101.715, 148.574 97.473, 146.960 96.475 C 146.285 96.058, 146.148 96.741, 146.568 98.416 C 146.968 100.010, 146.800 101, 146.127 101 C 145.528 101, 144.756 99.875, 144.411 98.500 C 144.013 96.918, 143.077 96, 141.860 96 C 140.284 96, 139.980 96.632, 140.173 99.500 M 53.523 98.927 C 52.993 100.596, 52.338 100.876, 50.182 100.352 C 47.612 99.728, 47.570 99.780, 49.179 101.601 C 50.421 103.006, 50.598 103.967, 49.859 105.287 C 48.990 106.840, 49.181 106.993, 51.321 106.456 C 52.684 106.113, 54.080 106.320, 54.450 106.919 C 55.545 108.690, 57 108.148, 57 105.969 C 57 104.851, 57.701 103.668, 58.558 103.340 C 59.816 102.857, 59.672 102.521, 57.808 101.591 C 56.538 100.959, 55.500 99.929, 55.500 99.304 C 55.500 97.119, 54.177 96.867, 53.523 98.927 M 141 99 C 141 100.111, 141.667 101, 142.500 101 C 144.183 101, 144.251 100.817, 143.393 98.582 C 142.536 96.347, 141 96.616, 141 99 M 174.846 99.010 C 174.618 100.599, 173.649 101.627, 172 102.033 L 169.500 102.647 171.750 103.391 C 173.112 103.841, 174 104.946, 174 106.190 C 174 107.873, 174.263 108.027, 175.452 107.040 C 176.272 106.359, 177.838 106.131, 179.051 106.516 C 180.901 107.103, 181.103 106.901, 180.516 105.051 C 180.114 103.785, 180.382 102.231, 181.167 101.265 C 182.335 99.829, 182.257 99.717, 180.541 100.362 C 179.123 100.894, 178.114 100.477, 176.887 98.850 L 175.191 96.602 174.846 99.010 M 142.768 105.725 C 144.565 105.947, 147.265 105.943, 148.768 105.715 C 150.271 105.486, 148.800 105.304, 145.500 105.310 C 142.200 105.315, 140.971 105.502, 142.768 105.725 M 140.714 108.619 C 139.678 109.656, 139.838 113.782, 140.941 114.464 C 141.459 114.784, 141.797 113.847, 141.691 112.382 C 141.586 110.917, 142.063 109.519, 142.750 109.276 C 143.575 108.984, 144 109.881, 144 111.917 C 144 113.612, 144.338 114.993, 144.750 114.985 C 146.711 114.945, 148.143 113.044, 147.837 110.887 C 147.578 109.053, 146.796 108.431, 144.464 108.203 C 142.794 108.039, 141.107 108.227, 140.714 108.619 M 145 111.500 C 145 112.991, 145.431 113.852, 146 113.500 C 146.550 113.160, 147 112.260, 147 111.500 C 147 110.740, 146.550 109.840, 146 109.500 C 145.431 109.148, 145 110.009, 145 111.500 M 178.580 117.750 C 178.075 119.339, 177.085 120, 175.210 120 C 172.571 120, 172.568 120.009, 174.686 121.493 C 176.141 122.512, 176.642 123.653, 176.266 125.090 C 175.764 127.012, 175.900 127.080, 177.833 125.872 C 179.504 124.829, 180.208 124.808, 181.175 125.775 C 183.062 127.662, 184.191 127.226, 183.032 125.059 C 182.193 123.492, 182.422 122.818, 184.219 121.559 L 186.445 120 183.875 120 C 182.175 120, 180.966 119.239, 180.301 117.750 L 179.295 115.500 178.580 117.750 M 50 118.500 C 50 119.462, 49.014 120.011, 47.250 120.032 C 44.683 120.061, 44.623 120.156, 46.341 121.458 C 47.623 122.430, 47.973 123.508, 47.496 125.012 C 46.871 126.981, 47.006 127.067, 49.013 125.993 C 50.605 125.141, 51.517 125.117, 52.307 125.907 C 54.011 127.611, 54.865 127.198, 54.278 124.954 C 53.937 123.652, 54.426 122.392, 55.621 121.486 C 57.393 120.145, 57.343 120.062, 54.750 120.032 C 52.986 120.011, 52 119.462, 52 118.500 C 52 117.675, 51.550 117, 51 117 C 50.450 117, 50 117.675, 50 118.500 M 143.250 117.728 C 146.114 118.028, 147 118.565, 147 120 C 147 121.435, 146.114 121.972, 143.250 122.272 L 139.500 122.664 143.750 122.832 C 147.843 122.994, 148 122.889, 148 120 C 148 117.111, 147.843 117.006, 143.750 117.168 L 139.500 117.336 143.250 117.728 M 141.200 126.200 C 139.521 127.879, 139.704 129.523, 141.750 131.128 C 143.333 132.369, 143.370 132.334, 142.138 130.763 C 140.261 128.368, 141.450 125.783, 144.246 126.181 C 146.068 126.441, 146.461 127.076, 146.299 129.501 C 146.111 132.296, 146.194 132.371, 147.510 130.612 C 150.363 126.798, 144.619 122.781, 141.200 126.200 M 87 136.429 C 87 149.928, 87.067 150, 99.645 150 C 107.965 150, 109.106 149.793, 108.823 148.338 C 108.551 146.939, 107.297 146.712, 100.883 146.900 C 90.849 147.194, 90 146.377, 90 136.429 L 90 129 99.500 129 C 107.278 129, 109 128.728, 109 127.500 C 109 126.258, 107.111 126, 98 126 L 87 126 87 136.429 M 141.750 133.706 C 142.988 133.944, 145.012 133.944, 146.250 133.706 C 147.488 133.467, 146.475 133.272, 144 133.272 C 141.525 133.272, 140.512 133.467, 141.750 133.706 M 52 138.277 C 52 140.333, 51.510 141, 50 141 C 48.900 141, 48 141.450, 48 142 C 48 142.550, 48.675 143, 49.500 143 C 50.457 143, 51 143.962, 51 145.655 C 51 148.214, 51.070 148.247, 52.928 146.565 C 54.189 145.424, 55.596 145.054, 56.991 145.497 C 58.922 146.110, 59.006 145.983, 57.873 144.169 C 56.851 142.532, 56.885 141.839, 58.060 140.408 C 59.368 138.814, 59.293 138.706, 57.243 139.235 C 55.637 139.649, 54.554 139.201, 53.493 137.686 C 52.013 135.573, 52 135.578, 52 138.277 M 140.562 136.900 C 140.256 137.395, 140.104 138.991, 140.225 140.447 C 140.422 142.833, 140.793 143.065, 143.972 142.797 C 146.815 142.558, 147.565 142.041, 147.835 140.135 C 148.019 138.834, 147.673 137.273, 147.066 136.666 C 146.261 135.861, 146.137 136.434, 146.606 138.781 C 147.026 140.880, 146.859 142, 146.125 142 C 145.506 142, 145 141.190, 145 140.200 C 145 137.213, 141.827 134.854, 140.562 136.900 M 141.404 138.389 C 140.752 140.088, 141.629 142, 143.059 142 C 144.320 142, 144.266 138.282, 142.993 137.496 C 142.439 137.153, 141.724 137.555, 141.404 138.389 M 176.419 138.352 C 176.087 139.215, 174.924 139.524, 173.200 139.206 C 170.548 138.718, 170.532 138.745, 172.315 140.755 C 173.497 142.087, 173.758 143.031, 173.065 143.460 C 171.074 144.690, 171.989 146.041, 174.403 145.435 C 176.117 145.005, 177.113 145.358, 177.873 146.666 C 178.853 148.353, 178.942 148.317, 178.970 146.218 C 178.988 144.807, 179.859 143.585, 181.250 143.019 L 183.500 142.102 181.250 141.434 C 179.949 141.048, 179 139.972, 179 138.883 C 179 136.716, 177.189 136.343, 176.419 138.352 M 115 157.869 C 115 159.908, 115.452 160, 125.500 160 C 134.167 160, 136 159.738, 136 158.500 C 136 157.316, 134.578 156.998, 129.250 156.989 C 125.537 156.983, 120.813 156.699, 118.750 156.358 C 115.396 155.804, 115 155.963, 115 157.869 M 98.500 164 C 97.474 165.134, 97.190 166, 97.845 166 C 98.498 166, 99 167.520, 99 169.500 C 99 171.425, 99.450 173, 100 173 C 100.550 173, 101 170.525, 101 167.500 C 101 164.475, 100.845 162, 100.655 162 C 100.465 162, 99.495 162.900, 98.500 164 M 105.516 163.365 C 103.241 165.028, 104.334 169, 107.067 169 C 108.130 169, 109 169.502, 109 170.117 C 109 170.741, 108.118 171.003, 107 170.710 C 104.682 170.104, 104.260 171.779, 106.513 172.643 C 108.879 173.551, 111 171.080, 111 167.413 C 111 163.361, 108.273 161.349, 105.516 163.365 M 113.525 163.618 C 111.534 165.609, 111.954 167.195, 114.815 168.487 C 117.553 169.724, 117.703 171.358, 115 170.500 C 112.578 169.731, 112.257 171.778, 114.656 172.698 C 115.701 173.099, 116.952 172.543, 118.048 171.189 L 119.785 169.044 121.187 171.155 C 122.224 172.716, 123.162 173.083, 124.794 172.565 C 126.550 172.008, 127 171.103, 127 168.133 C 127 164.662, 125.628 162, 123.839 162 C 123.420 162, 122.160 162.985, 121.039 164.189 C 119.918 165.392, 119 165.858, 119 165.224 C 119 164.589, 118.131 163.605, 117.069 163.037 C 115.605 162.254, 114.749 162.394, 113.525 163.618 M 106 165.417 C 106 166.287, 106.713 167, 107.583 167 C 108.454 167, 108.989 166.466, 108.771 165.813 C 108.153 163.958, 106 163.651, 106 165.417 M 115 165.441 C 115 166.298, 115.450 167, 116 167 C 116.550 167, 117 166.577, 117 166.059 C 117 165.541, 116.550 164.840, 116 164.500 C 115.450 164.160, 115 164.584, 115 165.441 M 123 167.559 C 123 169.677, 123.405 170.868, 124 170.500 C 124.550 170.160, 125 168.559, 125 166.941 C 125 165.323, 124.550 164, 124 164 C 123.450 164, 123 165.602, 123 167.559 M 92 179.378 C 92 179.586, 91.319 181.386, 90.487 183.378 C 89.602 185.496, 89.394 187, 89.987 187 C 90.544 187, 91 186.371, 91 185.603 C 91 184.671, 92.048 184.254, 94.143 184.353 C 97.791 184.524, 98.786 182.928, 96.473 180.616 C 95.051 179.194, 92 178.350, 92 179.378 M 92.652 181.465 C 92.047 183.042, 92.808 184, 94.667 184 C 95.400 184, 96 183.373, 96 182.607 C 96 180.717, 93.293 179.794, 92.652 181.465 M 133.500 182.506 C 131.541 184.071, 131.549 184.090, 133.878 183.444 L 136.256 182.784 134.378 185.360 C 133.345 186.778, 132.211 187.951, 131.857 187.969 C 130.944 188.013, 129.896 184.978, 130.491 184.015 C 130.765 183.572, 130.316 182.952, 129.494 182.636 C 127.578 181.901, 127.600 183.325, 129.562 187.120 C 130.647 189.217, 131.488 189.856, 132.312 189.209 C 132.966 188.696, 134.738 187.980, 136.250 187.619 C 139.458 186.852, 139.643 186.014, 137.250 183.065 C 135.624 181.061, 135.358 181.021, 133.500 182.506 M 105.500 183 C 105.840 183.550, 106.316 184, 106.559 184 C 106.802 184, 107 183.550, 107 183 C 107 182.450, 106.523 182, 105.941 182 C 105.359 182, 105.160 182.450, 105.500 183 M 100.250 184.689 C 102.646 185.315, 102.463 187, 100 187 C 98.889 187, 98 187.667, 98 188.500 C 98 189.325, 98.477 190, 99.059 190 C 99.641 190, 99.840 189.550, 99.500 189 C 99.160 188.450, 99.610 188, 100.500 188 C 101.390 188, 101.859 188.419, 101.543 188.931 C 101.226 189.443, 101.377 190.115, 101.877 190.424 C 102.949 191.086, 104.331 186.345, 103.472 184.954 C 103.147 184.429, 101.896 184.052, 100.691 184.116 C 98.999 184.206, 98.899 184.336, 100.250 184.689 M 124.341 184.768 C 123.097 185.559, 123.692 191, 125.023 191 C 125.457 191, 125.577 190.098, 125.288 188.995 C 125 187.892, 125.322 186.317, 126.004 185.495 C 127.303 183.930, 126.328 183.504, 124.341 184.768 M 105.729 185.604 C 105.328 186.005, 105.029 187.496, 105.063 188.917 L 105.127 191.500 106.092 189.086 C 107.132 186.484, 106.917 184.417, 105.729 185.604 M 108.750 185.571 C 108.338 185.990, 108.014 188.171, 108.030 190.417 C 108.055 193.708, 108.261 194.156, 109.092 192.728 C 110.239 190.758, 109.934 184.368, 108.750 185.571 M 111.750 185.662 C 113.338 186.303, 113.367 189.233, 111.800 190.800 C 110.907 191.693, 110.898 192, 111.765 192 C 112.405 192, 113.357 191.201, 113.880 190.224 C 114.968 188.190, 113.597 184.954, 111.700 185.079 C 110.819 185.137, 110.833 185.292, 111.750 185.662 M 116.667 185.667 C 115.394 186.940, 116.009 190.789, 117.582 191.393 C 119.699 192.205, 119.636 192.221, 121.427 190.431 C 122.611 189.246, 122.743 188.388, 121.963 186.931 C 120.953 185.044, 117.995 184.338, 116.667 185.667 M 134.500 186 C 134.160 186.550, 134.584 187, 135.441 187 C 136.298 187, 137 186.550, 137 186 C 137 185.450, 136.577 185, 136.059 185 C 135.541 185, 134.840 185.450, 134.500 186 M 117.336 187.567 C 116.502 189.739, 118.618 191.782, 120.133 190.267 C 121.413 188.987, 120.620 186, 119 186 C 118.415 186, 117.667 186.705, 117.336 187.567" stroke="none" fill="#0b1846" fill-rule="evenodd"/><path d="M 108.760 66.154 C 100.213 67.015, 93.813 69.144, 86.379 73.597 C 74.739 80.571, 66.293 90.900, 61.519 104 C 57.902 113.926, 57.625 128.961, 60.875 139 C 69.920 166.939, 98.058 183.699, 126.201 177.910 C 133.784 176.350, 146.653 169.870, 152.594 164.619 C 159.300 158.693, 165.260 149.340, 168.486 139.677 C 171.841 129.630, 172.109 115.742, 169.133 106.178 C 163.927 89.451, 150.428 75.045, 134.310 69.015 C 127.446 66.447, 117.220 65.302, 108.760 66.154 M 80.383 87.444 C 78.397 88.835, 78.295 90.099, 77.628 121.570 C 77.020 150.235, 77.126 154.544, 78.491 156.626 C 80.009 158.944, 80.389 159, 94.523 159 C 106.725 159, 109 158.764, 109 157.500 C 109 156.245, 106.911 156, 96.200 156 C 87.578 156, 83.008 155.608, 82.200 154.800 C 80.485 153.085, 80.485 92.915, 82.200 91.200 C 83.008 90.392, 87.578 90, 96.200 90 C 108.333 90, 109 89.896, 109 88 C 109 86.100, 108.333 86, 95.723 86 C 85.767 86, 81.929 86.361, 80.383 87.444 M 115.750 86.561 C 115.338 86.986, 115 87.933, 115 88.667 C 115 89.651, 116.833 90, 122 90 L 129 90 129 120.500 L 129 151 132.500 151 C 135.333 151, 136 150.619, 136 149 C 136 147.624, 135.333 147, 133.863 147 L 131.727 147 132.233 117 L 132.739 87 130.516 87 C 129.294 87, 125.640 86.728, 122.397 86.395 C 119.154 86.062, 116.162 86.137, 115.750 86.561 M 143.750 88.733 C 141.688 89.579, 140 90.625, 140 91.058 C 140 91.994, 146.920 94.413, 147.614 93.720 C 147.877 93.456, 146.947 92.953, 145.547 92.601 C 142.303 91.787, 142.281 90.397, 145.500 89.589 C 146.875 89.244, 148 88.520, 148 87.981 C 148 87.441, 147.887 87.044, 147.750 87.097 C 147.613 87.151, 145.813 87.887, 143.750 88.733 M 91 95.771 C 87.732 96.771, 87 99.320, 87 109.691 L 87 120 98 120 C 108.333 120, 109 119.879, 109 118 C 109 116.140, 108.333 116, 99.500 116 L 90 116 90 108.700 C 90 104.356, 90.486 100.914, 91.200 100.200 C 91.941 99.459, 95.578 99, 100.700 99 C 107.205 99, 109 98.693, 109 97.579 C 109 96.798, 107.746 95.884, 106.214 95.547 C 103.195 94.884, 93.428 95.028, 91 95.771 M 115 97.500 C 115 98.412, 115.930 99, 117.372 99 L 119.743 99 119.500 119.250 C 119.144 148.871, 119.313 147, 117 147 C 115.889 147, 115 147.667, 115 148.500 C 115 149.583, 116.111 150, 119 150 L 123 150 123 123 L 123 96 119 96 C 116.111 96, 115 96.417, 115 97.500 M 140.173 99.500 C 140.367 102.375, 140.804 103, 142.623 103 C 143.840 103, 145.548 102.727, 146.418 102.393 C 148.185 101.715, 148.574 97.473, 146.960 96.475 C 146.285 96.058, 146.148 96.741, 146.568 98.416 C 146.968 100.010, 146.800 101, 146.127 101 C 145.528 101, 144.756 99.875, 144.411 98.500 C 144.013 96.918, 143.077 96, 141.860 96 C 140.284 96, 139.980 96.632, 140.173 99.500 M 53.523 98.927 C 52.993 100.596, 52.338 100.876, 50.182 100.352 C 47.612 99.728, 47.570 99.780, 49.179 101.601 C 50.421 103.006, 50.598 103.967, 49.859 105.287 C 48.990 106.840, 49.181 106.993, 51.321 106.456 C 52.684 106.113, 54.080 106.320, 54.450 106.919 C 55.545 108.690, 57 108.148, 57 105.969 C 57 104.851, 57.701 103.668, 58.558 103.340 C 59.816 102.857, 59.672 102.521, 57.808 101.591 C 56.538 100.959, 55.500 99.929, 55.500 99.304 C 55.500 97.119, 54.177 96.867, 53.523 98.927 M 141 99 C 141 100.111, 141.667 101, 142.500 101 C 144.183 101, 144.251 100.817, 143.393 98.582 C 142.536 96.347, 141 96.616, 141 99 M 174.846 99.010 C 174.618 100.599, 173.649 101.627, 172 102.033 L 169.500 102.647 171.750 103.391 C 173.112 103.841, 174 104.946, 174 106.190 C 174 107.873, 174.263 108.027, 175.452 107.040 C 176.272 106.359, 177.838 106.131, 179.051 106.516 C 180.901 107.103, 181.103 106.901, 180.516 105.051 C 180.114 103.785, 180.382 102.231, 181.167 101.265 C 182.335 99.829, 182.257 99.717, 180.541 100.362 C 179.123 100.894, 178.114 100.477, 176.887 98.850 L 175.191 96.602 174.846 99.010 M 142.768 105.725 C 144.565 105.947, 147.265 105.943, 148.768 105.715 C 150.271 105.486, 148.800 105.304, 145.500 105.310 C 142.200 105.315, 140.971 105.502, 142.768 105.725 M 140.714 108.619 C 139.678 109.656, 139.838 113.782, 140.941 114.464 C 141.459 114.784, 141.797 113.847, 141.691 112.382 C 141.586 110.917, 142.063 109.519, 142.750 109.276 C 143.575 108.984, 144 109.881, 144 111.917 C 144 113.612, 144.338 114.993, 144.750 114.985 C 146.711 114.945, 148.143 113.044, 147.837 110.887 C 147.578 109.053, 146.796 108.431, 144.464 108.203 C 142.794 108.039, 141.107 108.227, 140.714 108.619 M 145 111.500 C 145 112.991, 145.431 113.852, 146 113.500 C 146.550 113.160, 147 112.260, 147 111.500 C 147 110.740, 146.550 109.840, 146 109.500 C 145.431 109.148, 145 110.009, 145 111.500 M 178.580 117.750 C 178.075 119.339, 177.085 120, 175.210 120 C 172.571 120, 172.568 120.009, 174.686 121.493 C 176.141 122.512, 176.642 123.653, 176.266 125.090 C 175.764 127.012, 175.900 127.080, 177.833 125.872 C 179.504 124.829, 180.208 124.808, 181.175 125.775 C 183.062 127.662, 184.191 127.226, 183.032 125.059 C 182.193 123.492, 182.422 122.818, 184.219 121.559 L 186.445 120 183.875 120 C 182.175 120, 180.966 119.239, 180.301 117.750 L 179.295 115.500 178.580 117.750 M 50 118.500 C 50 119.462, 49.014 120.011, 47.250 120.032 C 44.683 120.061, 44.623 120.156, 46.341 121.458 C 47.623 122.430, 47.973 123.508, 47.496 125.012 C 46.871 126.981, 47.006 127.067, 49.013 125.993 C 50.605 125.141, 51.517 125.117, 52.307 125.907 C 54.011 127.611, 54.865 127.198, 54.278 124.954 C 53.937 123.652, 54.426 122.392, 55.621 121.486 C 57.393 120.145, 57.343 120.062, 54.750 120.032 C 52.986 120.011, 52 119.462, 52 118.500 C 52 117.675, 51.550 117, 51 117 C 50.450 117, 50 117.675, 50 118.500 M 143.250 117.728 C 146.114 118.028, 147 118.565, 147 120 C 147 121.435, 146.114 121.972, 143.250 122.272 L 139.500 122.664 143.750 122.832 C 147.843 122.994, 148 122.889, 148 120 C 148 117.111, 147.843 117.006, 143.750 117.168 L 139.500 117.336 143.250 117.728 M 141.200 126.200 C 139.521 127.879, 139.704 129.523, 141.750 131.128 C 143.333 132.369, 143.370 132.334, 142.138 130.763 C 140.261 128.368, 141.450 125.783, 144.246 126.181 C 146.068 126.441, 146.461 127.076, 146.299 129.501 C 146.111 132.296, 146.194 132.371, 147.510 130.612 C 150.363 126.798, 144.619 122.781, 141.200 126.200 M 87 136.429 C 87 149.928, 87.067 150, 99.645 150 C 107.965 150, 109.106 149.793, 108.823 148.338 C 108.551 146.939, 107.297 146.712, 100.883 146.900 C 90.849 147.194, 90 146.377, 90 136.429 L 90 129 99.500 129 C 107.278 129, 109 128.728, 109 127.500 C 109 126.258, 107.111 126, 98 126 L 87 126 87 136.429 M 141.750 133.706 C 142.988 133.944, 145.012 133.944, 146.250 133.706 C 147.488 133.467, 146.475 133.272, 144 133.272 C 141.525 133.272, 140.512 133.467, 141.750 133.706 M 52 138.277 C 52 140.333, 51.510 141, 50 141 C 48.900 141, 48 141.450, 48 142 C 48 142.550, 48.675 143, 49.500 143 C 50.457 143, 51 143.962, 51 145.655 C 51 148.214, 51.070 148.247, 52.928 146.565 C 54.189 145.424, 55.596 145.054, 56.991 145.497 C 58.922 146.110, 59.006 145.983, 57.873 144.169 C 56.851 142.532, 56.885 141.839, 58.060 140.408 C 59.368 138.814, 59.293 138.706, 57.243 139.235 C 55.637 139.649, 54.554 139.201, 53.493 137.686 C 52.013 135.573, 52 135.578, 52 138.277 M 140.562 136.900 C 140.256 137.395, 140.104 138.991, 140.225 140.447 C 140.422 142.833, 140.793 143.065, 143.972 142.797 C 146.815 142.558, 147.565 142.041, 147.835 140.135 C 148.019 138.834, 147.673 137.273, 147.066 136.666 C 146.261 135.861, 146.137 136.434, 146.606 138.781 C 147.026 140.880, 146.859 142, 146.125 142 C 145.506 142, 145 141.190, 145 140.200 C 145 137.213, 141.827 134.854, 140.562 136.900 M 141.404 138.389 C 140.752 140.088, 141.629 142, 143.059 142 C 144.320 142, 144.266 138.282, 142.993 137.496 C 142.439 137.153, 141.724 137.555, 141.404 138.389 M 176.419 138.352 C 176.087 139.215, 174.924 139.524, 173.200 139.206 C 170.548 138.718, 170.532 138.745, 172.315 140.755 C 173.497 142.087, 173.758 143.031, 173.065 143.460 C 171.074 144.690, 171.989 146.041, 174.403 145.435 C 176.117 145.005, 177.113 145.358, 177.873 146.666 C 178.853 148.353, 178.942 148.317, 178.970 146.218 C 178.988 144.807, 179.859 143.585, 181.250 143.019 L 183.500 142.102 181.250 141.434 C 179.949 141.048, 179 139.972, 179 138.883 C 179 136.716, 177.189 136.343, 176.419 138.352 M 115 157.869 C 115 159.908, 115.452 160, 125.500 160 C 134.167 160, 136 159.738, 136 158.500 C 136 157.316, 134.578 156.998, 129.250 156.989 C 125.537 156.983, 120.813 156.699, 118.750 156.358 C 115.396 155.804, 115 155.963, 115 157.869 M 98.500 164 C 97.474 165.134, 97.190 166, 97.845 166 C 98.498 166, 99 167.520, 99 169.500 C 99 171.425, 99.450 173, 100 173 C 100.550 173, 101 170.525, 101 167.500 C 101 164.475, 100.845 162, 100.655 162 C 100.465 162, 99.495 162.900, 98.500 164 M 105.516 163.365 C 103.241 165.028, 104.334 169, 107.067 169 C 108.130 169, 109 169.502, 109 170.117 C 109 170.741, 108.118 171.003, 107 170.710 C 104.682 170.104, 104.260 171.779, 106.513 172.643 C 108.879 173.551, 111 171.080, 111 167.413 C 111 163.361, 108.273 161.349, 105.516 163.365 M 113.568 163.575 C 111.536 165.607, 111.937 167.187, 114.815 168.487 C 117.553 169.724, 117.703 171.358, 115 170.500 C 112.578 169.731, 112.257 171.778, 114.656 172.698 C 115.701 173.099, 116.952 172.543, 118.048 171.189 L 119.785 169.044 121.187 171.155 C 122.224 172.716, 123.162 173.083, 124.794 172.565 C 126.550 172.008, 127 171.103, 127 168.133 C 127 164.686, 125.630 162, 123.871 162 C 123.471 162, 122.449 162.694, 121.601 163.542 C 120.211 164.932, 119.819 164.928, 117.642 163.501 C 115.428 162.050, 115.086 162.056, 113.568 163.575 M 106 165.417 C 106 166.287, 106.713 167, 107.583 167 C 108.454 167, 108.989 166.466, 108.771 165.813 C 108.153 163.958, 106 163.651, 106 165.417 M 123 165.500 C 123 166.325, 123.450 167, 124 167 C 124.550 167, 125 166.325, 125 165.500 C 125 164.675, 124.550 164, 124 164 C 123.450 164, 123 164.675, 123 165.500 M 105.500 183 C 105.840 183.550, 106.316 184, 106.559 184 C 106.802 184, 107 183.550, 107 183 C 107 182.450, 106.523 182, 105.941 182 C 105.359 182, 105.160 182.450, 105.500 183" stroke="none" fill="#d0ecf0" fill-rule="evenodd"/></svg>